<mxfile host="app.diagrams.net" modified="2022-07-13T11:18:43.212Z" agent="5.0 (Macintosh; Intel Mac OS X 10_15_7) AppleWebKit/537.36 (KHTML, like Gecko) Chrome/103.0.5060.114 Safari/537.36 Edg/103.0.1264.51" etag="fD6PLU6mQJZhcCQFXzbY" version="20.0.4" type="github">
  <diagram id="C5RBs43oDa-KdzZeNtuy" name="Page-1">
    <mxGraphModel dx="1575" dy="1232" grid="1" gridSize="10" guides="1" tooltips="1" connect="1" arrows="1" fold="1" page="1" pageScale="1" pageWidth="1169" pageHeight="827" background="#ffffff" math="0" shadow="0">
      <root>
        <mxCell id="WIyWlLk6GJQsqaUBKTNV-0" />
        <mxCell id="WIyWlLk6GJQsqaUBKTNV-1" parent="WIyWlLk6GJQsqaUBKTNV-0" />
        <mxCell id="tbeN6wXXpQd5_m06ZJOw-60" value="" style="rounded=0;whiteSpace=wrap;html=1;fontSize=13;fillColor=#d5e8d4;strokeColor=#82b366;" vertex="1" parent="WIyWlLk6GJQsqaUBKTNV-1">
          <mxGeometry x="190" y="50" width="1030" height="530" as="geometry" />
        </mxCell>
        <mxCell id="tbeN6wXXpQd5_m06ZJOw-0" value="&lt;font style=&quot;font-size: 14px;&quot;&gt;&lt;b&gt;Client&lt;/b&gt;&lt;/font&gt;&lt;br&gt;&lt;font style=&quot;font-size: 10px;&quot;&gt;Chrome, Edge, Firefox ...&lt;/font&gt;" style="rounded=1;whiteSpace=wrap;html=1;" vertex="1" parent="WIyWlLk6GJQsqaUBKTNV-1">
          <mxGeometry x="20" y="235" width="120" height="90" as="geometry" />
        </mxCell>
        <mxCell id="tbeN6wXXpQd5_m06ZJOw-1" value="&lt;h1&gt;WAS&lt;/h1&gt;&lt;p&gt;REQ and RES flow Diagram&lt;/p&gt;" style="text;html=1;strokeColor=none;fillColor=none;spacing=5;spacingTop=-20;whiteSpace=wrap;overflow=hidden;rounded=0;" vertex="1" parent="WIyWlLk6GJQsqaUBKTNV-1">
          <mxGeometry x="20" y="30" width="190" height="80" as="geometry" />
        </mxCell>
        <mxCell id="tbeN6wXXpQd5_m06ZJOw-3" value="" style="endArrow=classic;html=1;rounded=0;" edge="1" parent="WIyWlLk6GJQsqaUBKTNV-1">
          <mxGeometry relative="1" as="geometry">
            <mxPoint x="160" y="260" as="sourcePoint" />
            <mxPoint x="350" y="260" as="targetPoint" />
          </mxGeometry>
        </mxCell>
        <mxCell id="tbeN6wXXpQd5_m06ZJOw-4" value="1.REQ" style="edgeLabel;resizable=0;html=1;align=center;verticalAlign=middle;" connectable="0" vertex="1" parent="tbeN6wXXpQd5_m06ZJOw-3">
          <mxGeometry relative="1" as="geometry" />
        </mxCell>
        <mxCell id="tbeN6wXXpQd5_m06ZJOw-5" value="DispatcherServlet" style="shape=cube;whiteSpace=wrap;html=1;boundedLbl=1;backgroundOutline=1;darkOpacity=0.05;darkOpacity2=0.1;" vertex="1" parent="WIyWlLk6GJQsqaUBKTNV-1">
          <mxGeometry x="370" y="230" width="130" height="100" as="geometry" />
        </mxCell>
        <mxCell id="tbeN6wXXpQd5_m06ZJOw-6" value="" style="endArrow=classic;html=1;rounded=0;" edge="1" parent="WIyWlLk6GJQsqaUBKTNV-1">
          <mxGeometry relative="1" as="geometry">
            <mxPoint x="350" y="299.2" as="sourcePoint" />
            <mxPoint x="160" y="300" as="targetPoint" />
          </mxGeometry>
        </mxCell>
        <mxCell id="tbeN6wXXpQd5_m06ZJOw-7" value="18.RES" style="edgeLabel;resizable=0;html=1;align=center;verticalAlign=middle;" connectable="0" vertex="1" parent="tbeN6wXXpQd5_m06ZJOw-6">
          <mxGeometry relative="1" as="geometry" />
        </mxCell>
        <mxCell id="tbeN6wXXpQd5_m06ZJOw-9" value="HandlerMapping" style="rounded=1;whiteSpace=wrap;html=1;" vertex="1" parent="WIyWlLk6GJQsqaUBKTNV-1">
          <mxGeometry x="360" y="90" width="120" height="60" as="geometry" />
        </mxCell>
        <mxCell id="tbeN6wXXpQd5_m06ZJOw-11" value="" style="endArrow=classic;html=1;rounded=0;" edge="1" parent="WIyWlLk6GJQsqaUBKTNV-1">
          <mxGeometry relative="1" as="geometry">
            <mxPoint x="390" y="220" as="sourcePoint" />
            <mxPoint x="390" y="160" as="targetPoint" />
          </mxGeometry>
        </mxCell>
        <mxCell id="tbeN6wXXpQd5_m06ZJOw-12" value="2. controller &lt;br&gt;search" style="edgeLabel;resizable=0;html=1;align=center;verticalAlign=middle;" connectable="0" vertex="1" parent="tbeN6wXXpQd5_m06ZJOw-11">
          <mxGeometry relative="1" as="geometry" />
        </mxCell>
        <mxCell id="tbeN6wXXpQd5_m06ZJOw-13" value="ã…Š" style="endArrow=classic;html=1;rounded=0;" edge="1" parent="WIyWlLk6GJQsqaUBKTNV-1">
          <mxGeometry relative="1" as="geometry">
            <mxPoint x="460" y="160" as="sourcePoint" />
            <mxPoint x="460" y="220" as="targetPoint" />
          </mxGeometry>
        </mxCell>
        <mxCell id="tbeN6wXXpQd5_m06ZJOw-14" value="3. controller&lt;br&gt;info return" style="edgeLabel;resizable=0;html=1;align=center;verticalAlign=middle;" connectable="0" vertex="1" parent="tbeN6wXXpQd5_m06ZJOw-13">
          <mxGeometry relative="1" as="geometry" />
        </mxCell>
        <mxCell id="tbeN6wXXpQd5_m06ZJOw-15" value="HandlerAdapter" style="rounded=1;whiteSpace=wrap;html=1;" vertex="1" parent="WIyWlLk6GJQsqaUBKTNV-1">
          <mxGeometry x="620" y="240" width="120" height="90" as="geometry" />
        </mxCell>
        <mxCell id="tbeN6wXXpQd5_m06ZJOw-16" value="" style="endArrow=classic;html=1;rounded=0;" edge="1" parent="WIyWlLk6GJQsqaUBKTNV-1">
          <mxGeometry relative="1" as="geometry">
            <mxPoint x="510" y="260" as="sourcePoint" />
            <mxPoint x="610" y="260" as="targetPoint" />
          </mxGeometry>
        </mxCell>
        <mxCell id="tbeN6wXXpQd5_m06ZJOw-17" value="4.request &lt;br&gt;method call" style="edgeLabel;resizable=0;html=1;align=center;verticalAlign=middle;" connectable="0" vertex="1" parent="tbeN6wXXpQd5_m06ZJOw-16">
          <mxGeometry relative="1" as="geometry" />
        </mxCell>
        <mxCell id="tbeN6wXXpQd5_m06ZJOw-18" value="&lt;font style=&quot;font-size: 15px;&quot;&gt;&lt;b&gt;Controller&lt;/b&gt;&lt;/font&gt;&lt;br&gt;&lt;font style=&quot;font-size: 10px;&quot;&gt;(member, coffee, order, review, oauth)&lt;/font&gt;" style="rounded=1;whiteSpace=wrap;html=1;" vertex="1" parent="WIyWlLk6GJQsqaUBKTNV-1">
          <mxGeometry x="960" y="100" width="180" height="60" as="geometry" />
        </mxCell>
        <mxCell id="tbeN6wXXpQd5_m06ZJOw-19" value="&lt;font style=&quot;font-size: 15px;&quot;&gt;&lt;b&gt;Service&lt;/b&gt;&lt;/font&gt;&lt;br&gt;&lt;font style=&quot;font-size: 10px;&quot;&gt;(member, coffee, order, review, oauth)&lt;/font&gt;" style="rounded=1;whiteSpace=wrap;html=1;" vertex="1" parent="WIyWlLk6GJQsqaUBKTNV-1">
          <mxGeometry x="960" y="270" width="180" height="60" as="geometry" />
        </mxCell>
        <mxCell id="tbeN6wXXpQd5_m06ZJOw-20" value="&lt;font style=&quot;&quot;&gt;&lt;b style=&quot;&quot;&gt;&lt;font style=&quot;font-size: 17px;&quot;&gt;DAO&lt;/font&gt;&lt;br&gt;&lt;/b&gt;&lt;/font&gt;&lt;b&gt;(repository)&lt;/b&gt;&lt;br&gt;&lt;font style=&quot;font-size: 10px;&quot;&gt;(member, coffee, order, review)&lt;/font&gt;" style="rounded=1;whiteSpace=wrap;html=1;" vertex="1" parent="WIyWlLk6GJQsqaUBKTNV-1">
          <mxGeometry x="960" y="440" width="180" height="60" as="geometry" />
        </mxCell>
        <mxCell id="tbeN6wXXpQd5_m06ZJOw-21" value="" style="endArrow=classic;html=1;rounded=0;" edge="1" parent="WIyWlLk6GJQsqaUBKTNV-1">
          <mxGeometry relative="1" as="geometry">
            <mxPoint x="750" y="229.2" as="sourcePoint" />
            <mxPoint x="940" y="120" as="targetPoint" />
          </mxGeometry>
        </mxCell>
        <mxCell id="tbeN6wXXpQd5_m06ZJOw-22" value="5. controller call" style="edgeLabel;resizable=0;html=1;align=center;verticalAlign=middle;" connectable="0" vertex="1" parent="tbeN6wXXpQd5_m06ZJOw-21">
          <mxGeometry relative="1" as="geometry" />
        </mxCell>
        <mxCell id="tbeN6wXXpQd5_m06ZJOw-23" value="" style="endArrow=classic;html=1;rounded=0;" edge="1" parent="WIyWlLk6GJQsqaUBKTNV-1">
          <mxGeometry relative="1" as="geometry">
            <mxPoint x="1110" y="171.60000000000005" as="sourcePoint" />
            <mxPoint x="1110" y="257" as="targetPoint" />
          </mxGeometry>
        </mxCell>
        <mxCell id="tbeN6wXXpQd5_m06ZJOw-24" value="6. DTO to ENTITY&lt;br&gt;(mapper)" style="edgeLabel;resizable=0;html=1;align=center;verticalAlign=middle;" connectable="0" vertex="1" parent="tbeN6wXXpQd5_m06ZJOw-23">
          <mxGeometry relative="1" as="geometry" />
        </mxCell>
        <mxCell id="tbeN6wXXpQd5_m06ZJOw-26" value="" style="endArrow=classic;html=1;rounded=0;" edge="1" parent="WIyWlLk6GJQsqaUBKTNV-1">
          <mxGeometry relative="1" as="geometry">
            <mxPoint x="1110" y="340" as="sourcePoint" />
            <mxPoint x="1110" y="425.4" as="targetPoint" />
          </mxGeometry>
        </mxCell>
        <mxCell id="tbeN6wXXpQd5_m06ZJOw-27" value="7. ENTITY" style="edgeLabel;resizable=0;html=1;align=center;verticalAlign=middle;" connectable="0" vertex="1" parent="tbeN6wXXpQd5_m06ZJOw-26">
          <mxGeometry relative="1" as="geometry" />
        </mxCell>
        <mxCell id="tbeN6wXXpQd5_m06ZJOw-28" value="&lt;font style=&quot;font-size: 26px;&quot;&gt;DB&lt;/font&gt;" style="shape=cylinder3;whiteSpace=wrap;html=1;boundedLbl=1;backgroundOutline=1;size=15;fontSize=10;" vertex="1" parent="WIyWlLk6GJQsqaUBKTNV-1">
          <mxGeometry x="980" y="600" width="140" height="110" as="geometry" />
        </mxCell>
        <mxCell id="tbeN6wXXpQd5_m06ZJOw-29" value="" style="endArrow=classic;html=1;rounded=0;" edge="1" parent="WIyWlLk6GJQsqaUBKTNV-1">
          <mxGeometry relative="1" as="geometry">
            <mxPoint x="1110" y="510" as="sourcePoint" />
            <mxPoint x="1110" y="595.4000000000001" as="targetPoint" />
          </mxGeometry>
        </mxCell>
        <mxCell id="tbeN6wXXpQd5_m06ZJOw-30" value="8. ENTITY" style="edgeLabel;resizable=0;html=1;align=center;verticalAlign=middle;" connectable="0" vertex="1" parent="tbeN6wXXpQd5_m06ZJOw-29">
          <mxGeometry relative="1" as="geometry" />
        </mxCell>
        <mxCell id="tbeN6wXXpQd5_m06ZJOw-31" value="" style="endArrow=classic;html=1;rounded=0;" edge="1" parent="WIyWlLk6GJQsqaUBKTNV-1">
          <mxGeometry relative="1" as="geometry">
            <mxPoint x="990" y="600" as="sourcePoint" />
            <mxPoint x="990" y="510" as="targetPoint" />
          </mxGeometry>
        </mxCell>
        <mxCell id="tbeN6wXXpQd5_m06ZJOw-32" value="9. ENTITY" style="edgeLabel;resizable=0;html=1;align=center;verticalAlign=middle;" connectable="0" vertex="1" parent="tbeN6wXXpQd5_m06ZJOw-31">
          <mxGeometry relative="1" as="geometry" />
        </mxCell>
        <mxCell id="tbeN6wXXpQd5_m06ZJOw-33" value="" style="endArrow=classic;html=1;rounded=0;" edge="1" parent="WIyWlLk6GJQsqaUBKTNV-1">
          <mxGeometry relative="1" as="geometry">
            <mxPoint x="990" y="430" as="sourcePoint" />
            <mxPoint x="990" y="340" as="targetPoint" />
          </mxGeometry>
        </mxCell>
        <mxCell id="tbeN6wXXpQd5_m06ZJOw-34" value="10. ENTITY" style="edgeLabel;resizable=0;html=1;align=center;verticalAlign=middle;" connectable="0" vertex="1" parent="tbeN6wXXpQd5_m06ZJOw-33">
          <mxGeometry relative="1" as="geometry" />
        </mxCell>
        <mxCell id="tbeN6wXXpQd5_m06ZJOw-35" value="" style="endArrow=classic;html=1;rounded=0;" edge="1" parent="WIyWlLk6GJQsqaUBKTNV-1">
          <mxGeometry relative="1" as="geometry">
            <mxPoint x="990" y="260" as="sourcePoint" />
            <mxPoint x="990" y="170" as="targetPoint" />
          </mxGeometry>
        </mxCell>
        <mxCell id="tbeN6wXXpQd5_m06ZJOw-36" value="11. ENTITY to DTO&lt;br&gt;(mapper)" style="edgeLabel;resizable=0;html=1;align=center;verticalAlign=middle;" connectable="0" vertex="1" parent="tbeN6wXXpQd5_m06ZJOw-35">
          <mxGeometry relative="1" as="geometry" />
        </mxCell>
        <mxCell id="tbeN6wXXpQd5_m06ZJOw-37" value="&lt;font style=&quot;font-size: 20px;&quot;&gt;OAuth 2.0&lt;br&gt;provider&lt;br&gt;&lt;/font&gt;" style="whiteSpace=wrap;html=1;aspect=fixed;fontSize=26;" vertex="1" parent="WIyWlLk6GJQsqaUBKTNV-1">
          <mxGeometry x="1290" y="230" width="140" height="140" as="geometry" />
        </mxCell>
        <mxCell id="tbeN6wXXpQd5_m06ZJOw-38" value="" style="endArrow=classic;html=1;rounded=0;" edge="1" parent="WIyWlLk6GJQsqaUBKTNV-1">
          <mxGeometry relative="1" as="geometry">
            <mxPoint x="1169" y="280.0000000000001" as="sourcePoint" />
            <mxPoint x="1270" y="280" as="targetPoint" />
          </mxGeometry>
        </mxCell>
        <mxCell id="tbeN6wXXpQd5_m06ZJOw-39" value="REQ" style="edgeLabel;resizable=0;html=1;align=center;verticalAlign=middle;" connectable="0" vertex="1" parent="tbeN6wXXpQd5_m06ZJOw-38">
          <mxGeometry relative="1" as="geometry" />
        </mxCell>
        <mxCell id="tbeN6wXXpQd5_m06ZJOw-40" value="" style="endArrow=classic;html=1;rounded=0;" edge="1" parent="WIyWlLk6GJQsqaUBKTNV-1">
          <mxGeometry relative="1" as="geometry">
            <mxPoint x="1269" y="320" as="sourcePoint" />
            <mxPoint x="1169" y="320" as="targetPoint" />
          </mxGeometry>
        </mxCell>
        <mxCell id="tbeN6wXXpQd5_m06ZJOw-41" value="RES" style="edgeLabel;resizable=0;html=1;align=center;verticalAlign=middle;" connectable="0" vertex="1" parent="tbeN6wXXpQd5_m06ZJOw-40">
          <mxGeometry relative="1" as="geometry" />
        </mxCell>
        <mxCell id="tbeN6wXXpQd5_m06ZJOw-42" value="" style="endArrow=classic;html=1;rounded=0;" edge="1" parent="WIyWlLk6GJQsqaUBKTNV-1">
          <mxGeometry relative="1" as="geometry">
            <mxPoint x="940" y="169.19999999999993" as="sourcePoint" />
            <mxPoint x="760" y="270" as="targetPoint" />
          </mxGeometry>
        </mxCell>
        <mxCell id="tbeN6wXXpQd5_m06ZJOw-43" value="12. return &lt;br&gt;Model data" style="edgeLabel;resizable=0;html=1;align=center;verticalAlign=middle;" connectable="0" vertex="1" parent="tbeN6wXXpQd5_m06ZJOw-42">
          <mxGeometry relative="1" as="geometry" />
        </mxCell>
        <mxCell id="tbeN6wXXpQd5_m06ZJOw-44" value="" style="endArrow=classic;html=1;rounded=0;" edge="1" parent="WIyWlLk6GJQsqaUBKTNV-1">
          <mxGeometry relative="1" as="geometry">
            <mxPoint x="610" y="310" as="sourcePoint" />
            <mxPoint x="510" y="310" as="targetPoint" />
          </mxGeometry>
        </mxCell>
        <mxCell id="tbeN6wXXpQd5_m06ZJOw-45" value="13. return&lt;br&gt;Model data&lt;br&gt;+&lt;br&gt;View name" style="edgeLabel;resizable=0;html=1;align=center;verticalAlign=middle;" connectable="0" vertex="1" parent="tbeN6wXXpQd5_m06ZJOw-44">
          <mxGeometry relative="1" as="geometry" />
        </mxCell>
        <mxCell id="tbeN6wXXpQd5_m06ZJOw-46" value="&lt;font style=&quot;font-size: 13px;&quot;&gt;ViewResolver&lt;/font&gt;" style="rounded=1;whiteSpace=wrap;html=1;fontSize=20;" vertex="1" parent="WIyWlLk6GJQsqaUBKTNV-1">
          <mxGeometry x="400" y="440" width="105" height="60" as="geometry" />
        </mxCell>
        <mxCell id="tbeN6wXXpQd5_m06ZJOw-47" value="ã…Š" style="endArrow=classic;html=1;rounded=0;" edge="1" parent="WIyWlLk6GJQsqaUBKTNV-1">
          <mxGeometry relative="1" as="geometry">
            <mxPoint x="495" y="360" as="sourcePoint" />
            <mxPoint x="495" y="420" as="targetPoint" />
          </mxGeometry>
        </mxCell>
        <mxCell id="tbeN6wXXpQd5_m06ZJOw-48" value="14. view search" style="edgeLabel;resizable=0;html=1;align=center;verticalAlign=middle;" connectable="0" vertex="1" parent="tbeN6wXXpQd5_m06ZJOw-47">
          <mxGeometry relative="1" as="geometry" />
        </mxCell>
        <mxCell id="tbeN6wXXpQd5_m06ZJOw-51" value="" style="endArrow=classic;html=1;rounded=0;" edge="1" parent="WIyWlLk6GJQsqaUBKTNV-1">
          <mxGeometry relative="1" as="geometry">
            <mxPoint x="419.57" y="420" as="sourcePoint" />
            <mxPoint x="419.57" y="360" as="targetPoint" />
          </mxGeometry>
        </mxCell>
        <mxCell id="tbeN6wXXpQd5_m06ZJOw-52" value="15. return &lt;br&gt;view info" style="edgeLabel;resizable=0;html=1;align=center;verticalAlign=middle;" connectable="0" vertex="1" parent="tbeN6wXXpQd5_m06ZJOw-51">
          <mxGeometry relative="1" as="geometry" />
        </mxCell>
        <mxCell id="tbeN6wXXpQd5_m06ZJOw-53" value="&lt;font style=&quot;font-size: 13px;&quot;&gt;View&lt;/font&gt;" style="rounded=1;whiteSpace=wrap;html=1;fontSize=20;" vertex="1" parent="WIyWlLk6GJQsqaUBKTNV-1">
          <mxGeometry x="210" y="470" width="105" height="60" as="geometry" />
        </mxCell>
        <mxCell id="tbeN6wXXpQd5_m06ZJOw-54" value="" style="endArrow=classic;html=1;rounded=0;" edge="1" parent="WIyWlLk6GJQsqaUBKTNV-1">
          <mxGeometry relative="1" as="geometry">
            <mxPoint x="390" y="349.99999999999994" as="sourcePoint" />
            <mxPoint x="320" y="450" as="targetPoint" />
          </mxGeometry>
        </mxCell>
        <mxCell id="tbeN6wXXpQd5_m06ZJOw-55" value="16. request for&lt;br&gt;RES" style="edgeLabel;resizable=0;html=1;align=center;verticalAlign=middle;" connectable="0" vertex="1" parent="tbeN6wXXpQd5_m06ZJOw-54">
          <mxGeometry relative="1" as="geometry" />
        </mxCell>
        <mxCell id="tbeN6wXXpQd5_m06ZJOw-56" value="" style="endArrow=classic;html=1;rounded=0;" edge="1" parent="WIyWlLk6GJQsqaUBKTNV-1">
          <mxGeometry relative="1" as="geometry">
            <mxPoint x="240" y="450" as="sourcePoint" />
            <mxPoint x="330" y="330" as="targetPoint" />
          </mxGeometry>
        </mxCell>
        <mxCell id="tbeN6wXXpQd5_m06ZJOw-57" value="17.return&lt;br&gt;RES" style="edgeLabel;resizable=0;html=1;align=center;verticalAlign=middle;" connectable="0" vertex="1" parent="tbeN6wXXpQd5_m06ZJOw-56">
          <mxGeometry relative="1" as="geometry" />
        </mxCell>
        <mxCell id="tbeN6wXXpQd5_m06ZJOw-61" value="&lt;font style=&quot;font-size: 36px;&quot;&gt;WAS&lt;/font&gt;" style="text;html=1;strokeColor=none;fillColor=none;align=center;verticalAlign=middle;whiteSpace=wrap;rounded=0;fontSize=13;" vertex="1" parent="WIyWlLk6GJQsqaUBKTNV-1">
          <mxGeometry x="660" y="70" width="60" height="30" as="geometry" />
        </mxCell>
        <mxCell id="tbeN6wXXpQd5_m06ZJOw-63" value="" style="endArrow=none;dashed=1;html=1;dashPattern=1 3;strokeWidth=2;rounded=0;fontSize=36;" edge="1" parent="WIyWlLk6GJQsqaUBKTNV-1">
          <mxGeometry width="50" height="50" relative="1" as="geometry">
            <mxPoint x="10" y="30" as="sourcePoint" />
            <mxPoint x="10" y="10" as="targetPoint" />
          </mxGeometry>
        </mxCell>
        <mxCell id="tbeN6wXXpQd5_m06ZJOw-64" value="" style="endArrow=none;dashed=1;html=1;dashPattern=1 3;strokeWidth=2;rounded=0;fontSize=36;" edge="1" parent="WIyWlLk6GJQsqaUBKTNV-1">
          <mxGeometry width="50" height="50" relative="1" as="geometry">
            <mxPoint x="1480" y="740" as="sourcePoint" />
            <mxPoint x="1480" y="720" as="targetPoint" />
          </mxGeometry>
        </mxCell>
      </root>
    </mxGraphModel>
  </diagram>
</mxfile>
